<?xml version="1.0" encoding="UTF-8" standalone="no"?>
<svg
   xmlns:dc="http://purl.org/dc/elements/1.1/"
   xmlns:cc="http://creativecommons.org/ns#"
   xmlns:rdf="http://www.w3.org/1999/02/22-rdf-syntax-ns#"
   xmlns:svg="http://www.w3.org/2000/svg"
   xmlns="http://www.w3.org/2000/svg"
   xmlns:sodipodi="http://sodipodi.sourceforge.net/DTD/sodipodi-0.dtd"
   xmlns:inkscape="http://www.inkscape.org/namespaces/inkscape"
   viewBox="0 0 50 25"
   version="1.1"
   id="svg8"
   sodipodi:docname="GoSend-logo.svg"
   width="50"
   height="25"
   inkscape:version="0.92.5 (2060ec1f9f, 2020-04-08)">
  <metadata
     id="metadata14">
    <rdf:RDF>
      <cc:Work
         rdf:about="">
        <dc:format>image/svg+xml</dc:format>
        <dc:type
           rdf:resource="http://purl.org/dc/dcmitype/StillImage" />
        <dc:title>Dana</dc:title>
      </cc:Work>
    </rdf:RDF>
  </metadata>
  <defs
     id="defs12" />
  <sodipodi:namedview
     pagecolor="#ffffff"
     bordercolor="#666666"
     borderopacity="1"
     objecttolerance="10"
     gridtolerance="10"
     guidetolerance="10"
     inkscape:pageopacity="0"
     inkscape:pageshadow="2"
     inkscape:window-width="1366"
     inkscape:window-height="703"
     id="namedview10"
     showgrid="false"
     inkscape:zoom="5.86"
     inkscape:cx="48.271823"
     inkscape:cy="9.7269624"
     inkscape:window-x="0"
     inkscape:window-y="0"
     inkscape:window-maximized="1"
     inkscape:current-layer="svg8" />
  <title
     id="title2">Dana</title>
  <g
     id="g3803"
     transform="translate(-25)">
    <path
       style="fill:#00a23d;stroke-width:0.06972818"
       inkscape:connector-curvature="0"
       id="path53"
       d="m 49.999999,0.71834407 c 4.876829,0 8.833939,3.22090703 8.833939,7.19042603 0,3.9695169 -3.95711,7.1904259 -8.833939,7.1904259 -4.876827,0 -8.833937,-3.220909 -8.833937,-7.1904259 0.0077,-3.969519 3.95711,-7.19042603 8.833937,-7.19042603 z"
       class="st0" />
    <path
       style="fill:#ffffff;stroke-width:0.06972818"
       inkscape:connector-curvature="0"
       id="path55"
       d="m 54.714286,6.2039533 c -0.03091,-0.283089 -0.208678,-0.541012 -0.49464,-0.704575 -0.278234,-0.163562 -0.564197,-0.320833 -0.857888,-0.471812 -1.15931,0.434066 -2.650955,1.050569 -3.848908,1.56642 -0.409622,0.176141 -0.680126,0.515848 -0.687857,0.893297 -0.01546,0.490685 -0.02319,0.981371 -0.02319,1.472056 l -0.90426,-1.214132 -0.904263,0.484394 c 0.0077,-0.465521 0.02319,-0.931043 0.0541,-1.396565 0.02319,-0.371161 0.285963,-0.698284 0.687858,-0.874427 1.259785,-0.54101 2.813259,-1.207841 4.01894,-1.685944 -0.401894,-0.169851 -0.819245,-0.333415 -1.236596,-0.484394 -0.293693,-0.100654 -0.626028,-0.100654 -0.919717,0 -1.321615,0.440359 -2.581397,0.987661 -3.756163,1.641907 -0.285964,0.157271 -0.471453,0.408905 -0.50237,0.685701 -0.123658,1.069443 -0.154573,2.138887 -0.07729,3.2083279 0.01546,0.257924 0.170033,0.5032669 0.417353,0.6668289 1.136123,0.7926459 2.388177,1.4720549 3.725248,2.0130679 0.332334,0.125817 0.718771,0.125817 1.043378,-0.0063 1.32934,-0.547302 2.596851,-1.182678 3.787078,-1.912414 0.270503,-0.1572699 0.440536,-0.4089039 0.471451,-0.6794098 0.09275,-1.0631509 0.100472,-2.1325949 0.0077,-3.2020359 z"
       class="st1" />
    <path
       style="fill:#070000;stroke-width:0.06972818"
       inkscape:connector-curvature="0"
       id="path57"
       d="m 66.400847,19.823615 c 0,-0.478104 -0.649212,-0.868136 -1.398899,-0.868136 -0.749686,-0.04404 -1.406629,0.415196 -1.46073,1.025407 0,0.03775 -0.0077,0.0692 0,0.106943 0,0.685702 0.571926,1.126061 1.468457,1.126061 0.780603,0 1.398902,-0.390032 1.398902,-0.880718 z m -1.615304,-1.849506 c 0.579655,-0.02517 1.143853,0.132107 1.592117,0.427776 h 0.01546 v -1.824343 h 1.367985 v 5.510774 h -1.26751 v -0.390033 h -0.01546 c -0.440537,0.352287 -1.043378,0.534722 -1.661676,0.503267 -1.391172,0.05663 -2.581396,-0.811517 -2.658682,-1.950159 0,-0.05663 -0.0077,-0.106943 0,-0.163562 -0.02319,-1.151222 1.105207,-2.094848 2.519564,-2.11372 0.03864,0 0.07729,0 0.108202,0 z m -8.656176,0.113235 h 1.32934 v 0.377451 h 0.01546 c 0.455995,-0.327124 1.051107,-0.503267 1.661678,-0.490686 1.391171,0 2.357261,0.74861 2.357261,1.830633 v 2.277283 h -1.375714 v -2.132594 c 0,-0.610211 -0.494638,-0.981369 -1.275241,-0.981369 -0.66467,-0.05033 -1.26751,0.345995 -1.329341,0.887007 0,0.03145 -0.0077,0.06291 -0.0077,0.09436 v 2.132594 h -1.37574 z m -2.0713,1.566418 c -0.06182,-0.478103 -0.571927,-0.780063 -1.306156,-0.780063 -0.741957,0 -1.252054,0.30196 -1.329341,0.780063 z m -1.33707,-1.679653 c 1.398901,-0.05663 2.596853,0.817809 2.666412,1.962742 0.0077,0.06291 0.0077,0.125816 0,0.188725 v 0.314543 h -3.980296 c 0.04637,0.522138 0.571927,0.855551 1.391172,0.855551 0.587382,-0.0063 1.143851,-0.220179 1.514832,-0.597629 l 0.850159,0.691992 c -0.595113,0.541012 -1.46073,0.836682 -2.357264,0.805228 -1.715776,0 -2.751427,-0.836681 -2.751427,-2.107432 -0.03091,-1.144932 1.082021,-2.094848 2.488652,-2.120012 0.06182,0.0063 0.12366,0.0063 0.17776,0.0063 z m -7.040872,2.566661 c 0.193217,0.515849 0.695586,0.767482 1.483917,0.767482 0.711042,0 1.120665,-0.125816 1.120665,-0.345995 0,-0.232762 -0.293692,-0.339706 -1.213411,-0.452941 -1.800794,-0.22647 -2.43455,-0.578758 -2.43455,-1.295912 0,-0.742319 0.911991,-1.239295 2.264517,-1.239295 1.236599,0 2.357263,0.515849 2.612311,1.20784 l -1.252055,0.308252 c -0.255047,-0.421486 -0.796057,-0.666829 -1.367984,-0.629086 -0.564198,0 -0.935176,0.1384 -0.935176,0.345997 0,0.213889 0.262776,0.28938 1.344798,0.44036 1.661678,0.213888 2.318619,0.578757 2.318619,1.302203 0,0.748608 -0.981548,1.245586 -2.457734,1.245586 -0.641485,0.01888 -1.28297,-0.119526 -1.83171,-0.383741 -0.471453,-0.22018 -0.811518,-0.591339 -0.927448,-1.025407 z m -4.428561,-1.585291 c -0.765145,0.0063 -1.383443,0.515849 -1.383443,1.138643 0.0077,0.622792 0.633755,1.126059 1.3989,1.126059 0.765144,-0.0063 1.383441,-0.509557 1.383441,-1.132352 0.03091,-0.597628 -0.533281,-1.107186 -1.26751,-1.13235 -0.03864,0 -0.08501,0 -0.131388,0 z m 0,-0.98137 c 1.599845,0 2.774613,0.924753 2.774613,2.11372 0,1.182679 -1.167038,2.113721 -2.774613,2.113721 -1.429815,0.07549 -2.67414,-0.805225 -2.766886,-1.96903 -0.100473,-1.163805 0.989278,-2.17663 2.419093,-2.25212 0.115931,-0.01257 0.231862,-0.01257 0.347793,-0.0063 v 0 z m -4.822727,1.887251 c 0,-0.45294 -0.633756,-0.868135 -1.337071,-0.868135 -0.888804,0 -1.483915,0.440359 -1.483915,1.094604 -0.04637,0.58505 0.486911,1.088318 1.20568,1.126061 0.07729,0.0063 0.146848,0 0.224133,0 0.765145,0 1.391173,-0.390032 1.391173,-0.880718 z m -2.929189,2.421972 c 0.370979,0.434068 0.997006,0.685702 1.64622,0.654247 0.772872,0 1.337069,-0.402614 1.337069,-0.943626 v -0.289379 h -0.01545 c -0.42508,0.333417 -0.997008,0.509559 -1.584391,0.484395 -1.414357,0.03775 -2.596854,-0.874425 -2.643224,-2.025648 -0.03864,-1.151223 1.074293,-2.120012 2.488651,-2.151468 0.03864,0 0.06955,0 0.108202,0 0.60284,-0.03145 1.190224,0.138399 1.630762,0.465523 h 0.02319 v -0.390032 h 1.313884 v 3.894028 c 0,1.13235 -1.105209,1.918704 -2.650954,1.918704 -1.012463,0.04404 -1.994013,-0.308251 -2.635497,-0.949915 z"
       class="st2" />
  </g>
</svg>
