<?xml version="1.0" encoding="UTF-8" standalone="no"?>
<!-- Generator: Adobe Illustrator 24.2.3, SVG Export Plug-In . SVG Version: 6.00 Build 0)  -->

<svg
   xmlns:dc="http://purl.org/dc/elements/1.1/"
   xmlns:cc="http://creativecommons.org/ns#"
   xmlns:rdf="http://www.w3.org/1999/02/22-rdf-syntax-ns#"
   xmlns:svg="http://www.w3.org/2000/svg"
   xmlns="http://www.w3.org/2000/svg"
   xmlns:sodipodi="http://sodipodi.sourceforge.net/DTD/sodipodi-0.dtd"
   xmlns:inkscape="http://www.inkscape.org/namespaces/inkscape"
   version="1.1"
   id="Layer_1"
   x="0px"
   y="0px"
   width="100"
   height="25"
   viewBox="0 0 99.999997 25"
   xml:space="preserve"
   sodipodi:docname="GoSend-logo.svg"
   inkscape:version="0.92.5 (2060ec1f9f, 2020-04-08)"><metadata
   id="metadata15"><rdf:RDF><cc:Work
       rdf:about=""><dc:format>image/svg+xml</dc:format><dc:type
         rdf:resource="http://purl.org/dc/dcmitype/StillImage" /><dc:title></dc:title></cc:Work></rdf:RDF></metadata><defs
   id="defs13" /><sodipodi:namedview
   pagecolor="#ffffff"
   bordercolor="#666666"
   borderopacity="1"
   objecttolerance="10"
   gridtolerance="10"
   guidetolerance="10"
   inkscape:pageopacity="0"
   inkscape:pageshadow="2"
   inkscape:window-width="1366"
   inkscape:window-height="703"
   id="namedview11"
   showgrid="false"
   inkscape:zoom="8"
   inkscape:cx="47.622024"
   inkscape:cy="9.2421909"
   inkscape:window-x="0"
   inkscape:window-y="0"
   inkscape:window-maximized="1"
   inkscape:current-layer="Layer_1" />
<style
   type="text/css"
   id="style2">
	.st0{fill:#00A23D;}
	.st1{fill:#FFFFFF;}
	.st2{fill:#070000;}
</style>


<g
   id="g20"
   transform="matrix(0.06427355,0,0,0.06427355,35.230344,0.68019487)"><path
     id="path4"
     d="m 231.1,0 c 63.1,0 114.3,51.2 114.3,114.3 0,63.1 -51.2,114.3 -114.3,114.3 C 168,228.6 116.8,177.4 116.8,114.3 116.9,51.2 168,0 231.1,0 Z"
     class="st0"
     inkscape:connector-curvature="0"
     style="fill:#00a23d" /><path
     id="path6"
     d="m 292.2,87.2 c -0.4,-4.5 -2.7,-8.6 -6.4,-11.2 -3.6,-2.6 -7.3,-5.1 -11.1,-7.5 -15,6.9 -34.3,16.7 -49.8,24.9 -5.3,2.8 -8.8,8.2 -8.9,14.2 -0.2,7.8 -0.3,15.6 -0.3,23.4 l -11.7,-19.3 -11.7,7.7 c 0.1,-7.4 0.3,-14.8 0.7,-22.2 0.3,-5.9 3.7,-11.1 8.9,-13.9 16.3,-8.6 36.4,-19.2 52,-26.8 -5.2,-2.7 -10.6,-5.3 -16,-7.7 -3.8,-1.6 -8.1,-1.6 -11.9,0 -17.1,7 -33.4,15.7 -48.6,26.1 -3.7,2.5 -6.1,6.5 -6.5,10.9 -1.6,17 -2,34 -1,51 0.2,4.1 2.2,8 5.4,10.6 14.7,12.6 30.9,23.4 48.2,32 4.3,2 9.3,2 13.5,-0.1 17.2,-8.7 33.6,-18.8 49,-30.4 3.5,-2.5 5.7,-6.5 6.1,-10.8 1.2,-16.9 1.3,-33.9 0.1,-50.9 z"
     class="st1"
     inkscape:connector-curvature="0"
     style="fill:#ffffff" /><path
     id="path8"
     d="m 442,303.7 c 0,-7.6 -8.4,-13.8 -18.1,-13.8 -9.7,-0.7 -18.2,6.6 -18.9,16.3 0,0.6 -0.1,1.1 0,1.7 0,10.9 7.4,17.9 19,17.9 10.1,0 18.1,-6.2 18.1,-14 z m -20.9,-29.4 c 7.5,-0.4 14.8,2.1 20.6,6.8 h 0.2 v -29 h 17.7 v 87.6 h -16.4 v -6.2 H 443 c -5.7,5.6 -13.5,8.5 -21.5,8 -18,0.9 -33.4,-12.9 -34.4,-31 0,-0.9 -0.1,-1.7 0,-2.6 -0.3,-18.3 14.3,-33.3 32.6,-33.6 0.5,0 1,0 1.4,0 z m -112,1.8 h 17.2 v 6 h 0.2 c 5.9,-5.2 13.6,-8 21.5,-7.8 18,0 30.5,11.9 30.5,29.1 v 36.2 h -17.8 v -33.9 c 0,-9.7 -6.4,-15.6 -16.5,-15.6 -8.6,-0.8 -16.4,5.5 -17.2,14.1 0,0.5 -0.1,1 -0.1,1.5 v 33.9 H 309.1 Z M 282.3,301 c -0.8,-7.6 -7.4,-12.4 -16.9,-12.4 -9.6,0 -16.2,4.8 -17.2,12.4 z M 265,274.3 c 18.1,-0.9 33.6,13 34.5,31.2 0.1,1 0.1,2 0,3 v 5 H 248 c 0.6,8.3 7.4,13.6 18,13.6 7.6,-0.1 14.8,-3.5 19.6,-9.5 l 11,11 c -7.7,8.6 -18.9,13.3 -30.5,12.8 -22.2,0 -35.6,-13.3 -35.6,-33.5 -0.4,-18.2 14,-33.3 32.2,-33.7 0.8,0.1 1.6,0.1 2.3,0.1 z m -91.1,40.8 c 2.5,8.2 9,12.2 19.2,12.2 9.2,0 14.5,-2 14.5,-5.5 0,-3.7 -3.8,-5.4 -15.7,-7.2 -23.3,-3.6 -31.5,-9.2 -31.5,-20.6 0,-11.8 11.8,-19.7 29.3,-19.7 16,0 30.5,8.2 33.8,19.2 l -16.2,4.9 c -3.3,-6.7 -10.3,-10.6 -17.7,-10 -7.3,0 -12.1,2.2 -12.1,5.5 0,3.4 3.4,4.6 17.4,7 21.5,3.4 30,9.2 30,20.7 0,11.9 -12.7,19.8 -31.8,19.8 -8.3,0.3 -16.6,-1.9 -23.7,-6.1 -6.1,-3.5 -10.5,-9.4 -12,-16.3 z m -57.3,-25.2 c -9.9,0.1 -17.9,8.2 -17.9,18.1 0.1,9.9 8.2,17.9 18.1,17.9 9.9,-0.1 17.9,-8.1 17.9,-18 0.4,-9.5 -6.9,-17.6 -16.4,-18 -0.5,0 -1.1,0 -1.7,0 z m 0,-15.6 c 20.7,0 35.9,14.7 35.9,33.6 0,18.8 -15.1,33.6 -35.9,33.6 -18.5,1.2 -34.6,-12.8 -35.8,-31.3 -1.3,-18.5 12.8,-34.6 31.3,-35.8 1.5,-0.2 3,-0.2 4.5,-0.1 z m -62.4,30 c 0,-7.2 -8.2,-13.8 -17.3,-13.8 -11.5,0 -19.2,7 -19.2,17.4 -0.6,9.3 6.3,17.3 15.6,17.9 1,0.1 1.9,0 2.9,0 9.9,0 18,-6.2 18,-14 z m -37.9,38.5 c 4.8,6.9 12.9,10.9 21.3,10.4 10,0 17.3,-6.4 17.3,-15 v -4.6 h -0.2 c -5.5,5.3 -12.9,8.1 -20.5,7.7 C 15.9,341.9 0.6,327.4 0,309.1 c -0.5,-18.3 13.9,-33.7 32.2,-34.2 0.5,0 0.9,0 1.4,0 7.8,-0.5 15.4,2.2 21.1,7.4 H 55 v -6.2 H 72 V 338 c 0,18 -14.3,30.5 -34.3,30.5 -13.1,0.7 -25.8,-4.9 -34.1,-15.1 z"
     class="st2"
     inkscape:connector-curvature="0"
     style="fill:#070000" /></g>
</svg>