<?xml version="1.0" encoding="UTF-8" standalone="no"?>
<!-- Generator: Adobe Illustrator 24.2.3, SVG Export Plug-In . SVG Version: 6.00 Build 0)  -->

<svg
   xmlns:dc="http://purl.org/dc/elements/1.1/"
   xmlns:cc="http://creativecommons.org/ns#"
   xmlns:rdf="http://www.w3.org/1999/02/22-rdf-syntax-ns#"
   xmlns:svg="http://www.w3.org/2000/svg"
   xmlns="http://www.w3.org/2000/svg"
   xmlns:sodipodi="http://sodipodi.sourceforge.net/DTD/sodipodi-0.dtd"
   xmlns:inkscape="http://www.inkscape.org/namespaces/inkscape"
   version="1.1"
   id="GrabExpress"
   x="0px"
   y="0px"
   width="50"
   height="25"
   viewBox="0 0 50 25"
   xml:space="preserve"
   sodipodi:docname="GrabExpress-logo.svg"
   inkscape:version="0.92.5 (2060ec1f9f, 2020-04-08)"><metadata
   id="metadata49"><rdf:RDF><cc:Work
       rdf:about=""><dc:format>image/svg+xml</dc:format><dc:type
         rdf:resource="http://purl.org/dc/dcmitype/StillImage" /><dc:title></dc:title></cc:Work></rdf:RDF></metadata><defs
   id="defs47" /><sodipodi:namedview
   pagecolor="#ffffff"
   bordercolor="#666666"
   borderopacity="1"
   objecttolerance="10"
   gridtolerance="10"
   guidetolerance="10"
   inkscape:pageopacity="0"
   inkscape:pageshadow="2"
   inkscape:window-width="1366"
   inkscape:window-height="703"
   id="namedview45"
   showgrid="false"
   inkscape:zoom="7.2456858"
   inkscape:cx="40.473019"
   inkscape:cy="19.677942"
   inkscape:window-x="0"
   inkscape:window-y="0"
   inkscape:window-maximized="1"
   inkscape:current-layer="GrabExpress" />
<style
   type="text/css"
   id="style2">
	.st0{fill:#00913D;}
	.st1{fill:#FFFFFF;}
	.st2{fill:#009A3C;}
</style>



















<g
   id="g3855"
   transform="translate(15.796316,-0.58554026)"><circle
     style="fill:#00913d;stroke-width:0.06707542"
     r="8.9009085"
     id="ellipse4"
     cy="13.339408"
     cx="-0.32343253"
     class="st0"
     transform="rotate(-45)" /><path
     style="fill:#ffffff;stroke-width:0.06707606"
     inkscape:connector-curvature="0"
     id="path6"
     d="M 4.1925163,12.855639 C 4.0986093,12.801979 4.011411,12.761729 3.9107968,12.74161 3.7967676,12.72149 3.6894459,12.71478 3.5754165,12.74831 c -0.1743977,0.04695 -0.2951346,0.154275 -0.3487956,0.328673 -0.046953,0.147567 -0.040246,0.295134 0.00671,0.442702 0.060368,0.19452 0.2079359,0.295134 0.4024564,0.315257 0.093907,0.0067 0.1811053,0 0.2683042,-0.02683 0.02683,-0.0067 0.040246,-0.02012 0.040246,-0.05366 0,-0.09391 0,-0.181105 0,-0.275012 0,-0.03354 -0.00671,-0.04695 -0.046953,-0.04695 -0.073784,0 -0.1542751,0 -0.2280587,0 -0.040246,0 -0.046953,-0.01342 -0.046953,-0.04695 0,-0.04695 0,-0.100614 0,-0.147568 0,-0.02683 0.00671,-0.04695 0.040246,-0.04695 0.187813,0 0.375626,0 0.5567313,0 0.033538,0 0.040246,0.01342 0.040246,0.04695 0,0.08049 0,0.16769 0,0.248182 0,0.134152 0,0.261596 0,0.395748 0,0.03354 -0.00671,0.05366 -0.040246,0.07378 -0.1140292,0.06708 -0.2280585,0.114029 -0.3622107,0.134152 -0.1676902,0.02012 -0.3353803,0.01342 -0.4963629,-0.04024 C 3.0723454,13.948979 2.9113629,13.734335 2.8644096,13.4392 c -0.020123,-0.134152 -0.020123,-0.268304 0.020123,-0.395748 0.067076,-0.248182 0.2280586,-0.422579 0.4628249,-0.509778 0.2548889,-0.09391 0.5164855,-0.0872 0.7713746,0.0067 0.067076,0.02683 0.067076,0.02683 0.067076,0.100614 0.013416,0.06708 0.020123,0.134152 0.00671,0.214643 z"
     class="st1" /><path
     style="fill:#ffffff;stroke-width:0.06707606"
     inkscape:connector-curvature="0"
     id="path8"
     d="m 4.7894934,13.043452 c 0.033538,-0.03354 0.053661,-0.06708 0.080491,-0.0872 0.080491,-0.08049 0.1811055,-0.107321 0.2951348,-0.100614 0.033538,0 0.046953,0.01342 0.046953,0.05366 0,0.08049 0,0.154275 0,0.241474 -0.087199,-0.0067 -0.1609825,-0.01342 -0.2414739,0.0067 -0.033538,0.0067 -0.060368,0.02012 -0.087199,0.03354 -0.060369,0.03354 -0.087199,0.07378 -0.087199,0.147567 0.00671,0.228059 0,0.456118 0,0.684176 0,0.06037 0,0.06037 -0.060369,0.06037 -0.053661,0 -0.1073216,0 -0.1676901,0 -0.080491,0 -0.073784,0.0067 -0.073784,-0.07378 0,-0.254889 0,-0.509778 0,-0.75796 0,-0.107321 0,-0.207935 0,-0.315257 0,-0.04695 0,-0.04695 0.053661,-0.04695 0.060369,0 0.1140293,0 0.1743978,0 0.02683,0 0.040246,0.0067 0.040246,0.03354 0.013416,0.02683 0.020123,0.06708 0.026831,0.120737 z"
     class="st1" /><path
     style="fill:#ffffff;stroke-width:0.06707606"
     inkscape:connector-curvature="0"
     id="path10"
     d="m 6.2852896,13.298341 c 0,-0.02683 0,-0.05366 -0.00671,-0.08049 C 6.2584566,13.02333 6.1444275,12.895886 5.9566145,12.85564 5.8358776,12.82881 5.7151407,12.83552 5.5944038,12.84894 c -0.067076,0.0067 -0.1341522,0.02683 -0.2012283,0.06037 -0.020123,0.0067 -0.033538,0.01342 -0.033538,0.04025 0,0.07378 -0.00671,0.14086 0,0.214644 0.00671,0 0.013416,0 0.020123,0 0.013416,-0.0067 0.02683,-0.01342 0.040246,-0.02012 0.1207369,-0.05366 0.241474,-0.07378 0.3689184,-0.06037 0.1274445,0.01342 0.1945206,0.08049 0.2012281,0.207936 0,0.02683 -0.00671,0.04025 -0.033538,0.04025 -0.060368,0.0067 -0.1207369,0.01342 -0.1743977,0.02683 -0.1140294,0.01342 -0.2213512,0.03354 -0.3219652,0.08049 -0.1341522,0.06037 -0.1945206,0.174397 -0.187813,0.315257 0.00671,0.147567 0.073784,0.254889 0.2146434,0.301842 0.187813,0.06037 0.3689184,0.05366 0.5164857,-0.107321 0,0 0.00671,0 0.013416,0 0.013416,0.02683 0.013416,0.04695 0.020123,0.07378 0,0.02683 0.013416,0.03354 0.040246,0.03354 0.060369,0 0.1140294,0 0.1743979,0 0.046953,0 0.053661,0 0.053661,-0.05366 -0.020123,-0.22135 -0.020123,-0.462824 -0.020123,-0.704298 z m -0.3890411,0.550024 v 0 c -0.067076,0.04025 -0.1475674,0.04695 -0.2213511,0.02683 -0.067076,-0.01342 -0.1073216,-0.06037 -0.1140293,-0.120737 -0.00671,-0.07378 0.013416,-0.127444 0.087199,-0.154275 0.046953,-0.02012 0.093907,-0.03354 0.1475673,-0.04025 0.053661,-0.0067 0.1073218,-0.01342 0.1609826,-0.02683 0.02683,-0.0067 0.040246,0.0067 0.040246,0.03354 0,0.02683 0,0.06037 0,0.0872 0,0.01342 0,0.02683 0,0.03354 0.00671,0.0872 -0.040246,0.127445 -0.1006141,0.160983 z"
     class="st1" /><path
     style="fill:#ffffff;stroke-width:0.06707606"
     inkscape:connector-curvature="0"
     id="path12"
     d="m 7.6335185,13.144066 c -0.067076,-0.160982 -0.187813,-0.261596 -0.3622107,-0.288427 -0.1609826,-0.02683 -0.3085499,0 -0.4292868,0.120737 -0.00671,0.0067 -0.00671,0.01342 -0.020123,0.0067 -0.00671,-0.02012 -0.00671,-0.04025 -0.00671,-0.06708 0,-0.154275 0,-0.30855 0,-0.469532 0,-0.07378 0.00671,-0.06708 -0.067076,-0.05366 -0.060369,0.01342 -0.1207371,0.02683 -0.1811055,0.04025 -0.040246,0.0067 -0.053661,0.02012 -0.053661,0.06037 0,0.509778 0,1.026264 0,1.536042 0,0.03354 0.00671,0.05366 0.046953,0.04695 0.046953,0 0.100614,0 0.1475673,0 0.033538,0 0.053661,-0.0067 0.060368,-0.04695 0.00671,-0.02683 0,-0.05366 0.02683,-0.07378 0.02683,0.02683 0.053661,0.04695 0.087199,0.06708 0.033538,0.02012 0.067076,0.04025 0.1006142,0.05366 0.2079357,0.06708 0.509778,0.01342 0.6372226,-0.268304 0.1006141,-0.221351 0.1006141,-0.442702 0.013416,-0.664053 z m -0.2683042,0.496363 v 0 c -0.067076,0.228059 -0.342088,0.30855 -0.5231933,0.154275 -0.020123,-0.02012 -0.02683,-0.04025 -0.02683,-0.06037 0,-0.08049 0,-0.160983 0,-0.241474 0,-0.08049 0,-0.160983 0,-0.241474 0,-0.03354 0.00671,-0.05366 0.033538,-0.07378 0.1073216,-0.0872 0.2347662,-0.107321 0.3622107,-0.06037 0.1006141,0.04025 0.1408597,0.120737 0.1676901,0.221351 0.020123,0.09391 0.020123,0.19452 -0.013415,0.301842 z"
     class="st1" /><path
     style="fill:#ffffff;stroke-width:0.06707606"
     inkscape:connector-curvature="0"
     id="path14"
     d="m 7.9085305,13.278218 c 0,-0.234766 0,-0.469532 0,-0.704298 0,-0.01342 0,-0.03354 0,-0.04695 0,-0.02683 0.013416,-0.03354 0.033538,-0.03354 0.00671,0 0.013416,0 0.020123,0 0.2750119,0 0.5500237,0 0.8250356,0 0.060368,0 0.060368,0 0.060368,0.06037 0,0.04695 0,0.100614 0,0.147567 0,0.03354 -0.013416,0.04695 -0.046953,0.04695 -0.1609826,0 -0.3152576,0 -0.4762402,0 -0.1006141,0 -0.1006141,0 -0.1006141,0.100615 0,0.08049 0,0.160982 0,0.234766 0,0.04695 0,0.05366 0.053661,0.05366 0.1408598,0 0.2817195,0 0.4225793,0 0.060369,0 0.060369,0 0.060369,0.06037 0,0.04695 0,0.09391 0,0.134152 0,0.04695 0,0.04695 -0.053661,0.04695 -0.1341522,0 -0.2683044,0 -0.4024564,0 -0.013416,0 -0.026831,0 -0.040246,0 -0.02683,0 -0.040246,0.0067 -0.040246,0.04025 0,0.120737 0,0.241474 0,0.368918 0,0.04025 0.02683,0.04025 0.053661,0.04025 0.1609826,0 0.3219652,0 0.4896553,0 0.1006141,0 0.087199,-0.01342 0.087199,0.0872 0,0.04025 0,0.07378 0,0.114029 0.00671,0.04025 -0.013416,0.04695 -0.046953,0.04695 -0.2817195,0 -0.5701465,0 -0.851866,0 -0.046953,0 -0.046953,0 -0.046953,-0.05366 0,-0.254889 0,-0.496363 0,-0.744545 z"
     class="st1" /><path
     style="fill:#ffffff;stroke-width:0.06707606"
     inkscape:connector-curvature="0"
     id="path16"
     d="m 9.5720168,13.237973 c 0.040246,-0.04695 0.067076,-0.100614 0.1006141,-0.154275 0.040246,-0.06037 0.073784,-0.114029 0.1140293,-0.174398 0.013416,-0.02012 0.020123,-0.04025 0.046953,-0.04025 0.087199,0 0.1676898,0 0.2548888,0 0,0.03354 -0.02012,0.04695 -0.03354,0.06708 -0.100614,0.154275 -0.2012281,0.30855 -0.3085497,0.462825 -0.020123,0.03354 -0.026831,0.06037 0,0.09391 0.1140292,0.16769 0.2280585,0.33538 0.3353807,0.50307 0.01342,0.02012 0.03354,0.03354 0.03354,0.06037 -0.01342,0.02012 -0.02683,0.01342 -0.04695,0.01342 -0.06708,0 -0.1274449,-0.0067 -0.1945209,0 -0.067076,0.0067 -0.1006141,-0.02012 -0.1341522,-0.07378 -0.067076,-0.114029 -0.1341521,-0.221351 -0.2079359,-0.328673 -0.02683,0.01342 -0.033538,0.03354 -0.046953,0.05366 -0.060369,0.100614 -0.1274446,0.194521 -0.1878129,0.295135 -0.020123,0.04025 -0.046953,0.05366 -0.093906,0.04695 -0.073784,0 -0.1475675,0 -0.2213512,0 0.00671,-0.03354 0.020123,-0.05366 0.033538,-0.06708 0.1073216,-0.160983 0.2079356,-0.328673 0.3152574,-0.489655 0.033538,-0.05366 0.02683,-0.0872 0,-0.134152 -0.100614,-0.14086 -0.1945205,-0.288428 -0.2951348,-0.435995 -0.013416,-0.02012 -0.033538,-0.03354 -0.033538,-0.06037 0.013416,-0.02012 0.02683,-0.01342 0.046953,-0.01342 0.067076,0 0.1408598,0.0067 0.2079359,0 0.053661,-0.0067 0.087199,0.02012 0.1140293,0.06708 0.073784,0.107322 0.134152,0.207936 0.2012281,0.30855 z"
     class="st1" /><path
     style="fill:#ffffff;stroke-width:0.06707606"
     inkscape:connector-curvature="0"
     id="path18"
     d="m 11.456854,13.398955 c -0.0067,-0.120737 -0.04025,-0.241474 -0.107322,-0.342088 -0.16769,-0.254889 -0.570146,-0.268304 -0.744544,-0.08049 -0.0067,0.01342 -0.01342,0.02683 -0.04025,0.02683 -0.0067,-0.02683 -0.0067,-0.06037 -0.01342,-0.0872 0,-0.02012 -0.01342,-0.03354 -0.04025,-0.03354 -0.06708,0 -0.134152,0 -0.201228,0 -0.02683,0 -0.03354,0.01342 -0.03354,0.03354 0,0.01342 0,0.02683 0,0.04024 0,0.496363 0,0.992726 0,1.495796 0,0.01342 0,0.02683 0,0.04025 0,0.02683 0.0067,0.04025 0.04025,0.04025 0.06708,0 0.14086,0 0.207936,0 0.05366,0 0.05366,0 0.05366,-0.05366 0,-0.14086 0,-0.281719 0,-0.422579 0,-0.02012 0,-0.04695 0,-0.08049 0.06708,0.05366 0.127445,0.100615 0.201228,0.120737 0.248182,0.06037 0.509778,-0.02683 0.6171,-0.30855 0.05366,-0.134152 0.06708,-0.261596 0.06037,-0.389041 z m -0.328673,0.241474 v 0 c -0.06708,0.228059 -0.33538,0.30855 -0.523193,0.147567 -0.02012,-0.02012 -0.02683,-0.03354 -0.02683,-0.06037 0,-0.08049 0,-0.16769 0,-0.248181 0,-0.08049 0,-0.160983 0,-0.234767 0,-0.03354 0.01342,-0.06037 0.04025,-0.08049 0.107322,-0.08049 0.228059,-0.100614 0.348796,-0.05366 0.100614,0.04025 0.147567,0.120737 0.16769,0.221351 0.02683,0.100614 0.02683,0.207936 -0.0067,0.30855 z"
     class="st1" /><path
     style="fill:#ffffff;stroke-width:0.06707606"
     inkscape:connector-curvature="0"
     id="path20"
     d="m 11.912971,13.036744 c 0.03354,-0.03354 0.05366,-0.06707 0.08049,-0.0872 0.0872,-0.08049 0.187813,-0.107322 0.301842,-0.100614 0.02012,0 0.04025,0 0.04025,0.03354 0,0.0872 0,0.16769 0,0.261596 -0.0872,-0.0067 -0.160983,-0.01342 -0.241474,0.0067 -0.02683,0.0067 -0.05366,0.01342 -0.08049,0.03354 -0.06037,0.03354 -0.09391,0.07378 -0.09391,0.154275 0.0067,0.228059 0,0.456118 0,0.684176 0,0.06037 0,0.06037 -0.06037,0.06037 -0.06708,0 -0.134153,0 -0.201229,0 -0.02683,0 -0.04024,-0.0067 -0.04024,-0.03354 0,-0.01342 0,-0.03354 0,-0.04695 0,-0.342087 0,-0.684175 0,-1.026263 0,-0.01342 0,-0.03354 0,-0.04695 0,-0.02012 0.0067,-0.03354 0.03354,-0.03354 0.06708,0 0.134152,0 0.201228,0 0.02012,0 0.02683,0.0067 0.03354,0.02683 0.01342,0.02012 0.02012,0.06037 0.02683,0.114029 z"
     class="st1" /><path
     style="fill:#ffffff;stroke-width:0.06707606"
     inkscape:connector-curvature="0"
     id="path22"
     d="m 13.469136,13.097113 c -0.05366,-0.107322 -0.14086,-0.181105 -0.254889,-0.221351 -0.08049,-0.02683 -0.160982,-0.03354 -0.248181,-0.02683 -0.228059,0.0067 -0.415872,0.140859 -0.503071,0.355503 -0.04695,0.120737 -0.05366,0.248181 -0.04025,0.375626 0.02683,0.261596 0.181105,0.435994 0.435994,0.50307 0.127445,0.03354 0.248181,0.02683 0.375626,0.01342 0.08049,-0.01342 0.154275,-0.03354 0.228059,-0.06708 0.01342,-0.0067 0.03354,-0.01342 0.03354,-0.03354 0,-0.07378 0.0067,-0.147567 -0.0067,-0.221351 -0.0067,0 -0.01342,0 -0.01342,0 -0.02012,0.0067 -0.03354,0.01342 -0.05366,0.02683 -0.11403,0.05366 -0.234767,0.08049 -0.362211,0.07378 -0.214643,-0.0067 -0.328673,-0.114029 -0.355503,-0.33538 0.02683,-0.01342 0.05366,-0.0067 0.07378,-0.0067 0.221351,0 0.442702,0 0.657345,0 0.01342,0 0.03354,0 0.04695,0 0.02012,0 0.02683,-0.0067 0.03354,-0.03354 0.02012,-0.14086 0.01342,-0.275012 -0.04695,-0.402457 z m -0.737837,0.221351 v 0 c 0,-0.147567 0.120737,-0.261597 0.28172,-0.254889 0.14086,0 0.228059,0.100614 0.228059,0.254889 -0.174398,0 -0.342088,0 -0.509779,0 z"
     class="st1" /><path
     style="fill:#ffffff;stroke-width:0.06707606"
     inkscape:connector-curvature="0"
     id="path24"
     d="m 14.461862,13.144066 c -0.0872,-0.02683 -0.154275,-0.06037 -0.234766,-0.07378 -0.06037,-0.0067 -0.127445,-0.01342 -0.187813,-0.0067 -0.0872,0.01342 -0.134152,0.0872 -0.100614,0.160982 0.01342,0.03354 0.04025,0.05366 0.07378,0.06708 0.04695,0.02012 0.09391,0.02683 0.147568,0.04025 0.06708,0.02012 0.140859,0.04024 0.201228,0.06708 0.107322,0.05366 0.16769,0.134152 0.181105,0.254889 0.02012,0.187813 -0.07378,0.348795 -0.254889,0.402456 -0.19452,0.06037 -0.389041,0.04695 -0.576854,-0.04025 -0.04025,-0.02012 -0.05366,-0.04695 -0.05366,-0.0872 0.0067,-0.06037 0,-0.120737 0,-0.187813 0.03354,-0.0067 0.04695,0.01342 0.06708,0.02683 0.120737,0.07378 0.254889,0.107322 0.395749,0.0872 0.04025,-0.0067 0.08049,-0.02012 0.107322,-0.05366 0.04695,-0.06037 0.03354,-0.14086 -0.03354,-0.181105 -0.03354,-0.02012 -0.06708,-0.02683 -0.100614,-0.03354 -0.06037,-0.01342 -0.11403,-0.02683 -0.174398,-0.04695 -0.187813,-0.06037 -0.275012,-0.181106 -0.268304,-0.368919 0.0067,-0.160982 0.120736,-0.288427 0.301842,-0.328673 0.154275,-0.03354 0.30855,-0.02012 0.456117,0.03354 0.03354,0.01342 0.05366,0.02683 0.04695,0.06707 0.0067,0.06708 0.0067,0.127445 0.0067,0.201229 z"
     class="st1" /><path
     style="fill:#ffffff;stroke-width:0.06707606"
     inkscape:connector-curvature="0"
     id="path26"
     d="m 14.656383,13.741043 c 0.0872,0.06037 0.16769,0.100614 0.254889,0.120737 0.07378,0.01342 0.154275,0.02012 0.228058,0.0067 0.06708,-0.01342 0.107322,-0.05366 0.11403,-0.107322 0.0067,-0.06037 -0.01342,-0.100614 -0.07378,-0.127444 -0.05366,-0.02683 -0.107322,-0.03354 -0.160983,-0.04695 -0.05366,-0.01342 -0.107321,-0.02683 -0.160982,-0.05366 -0.127445,-0.06708 -0.201228,-0.16769 -0.201228,-0.315258 0,-0.147567 0.06708,-0.254889 0.201228,-0.321965 0.0872,-0.04025 0.174397,-0.05366 0.268304,-0.05366 0.100614,0 0.201228,0.01342 0.295135,0.05366 0.03354,0.01342 0.04695,0.02683 0.04695,0.06037 0,0.04025 0,0.0872 0,0.127444 0,0.06708 0,0.06708 -0.06037,0.04025 -0.100614,-0.04025 -0.201228,-0.06037 -0.308549,-0.06037 -0.02683,0 -0.04695,0 -0.07378,0.0067 -0.06037,0.01342 -0.0872,0.04695 -0.09391,0.09391 -0.0067,0.06037 0.01342,0.09391 0.06708,0.120737 0.03354,0.01342 0.06708,0.02683 0.100615,0.03354 0.07378,0.02012 0.154275,0.04025 0.228058,0.06708 0.295135,0.100614 0.248182,0.496363 0.07378,0.6171 -0.06037,0.04025 -0.120737,0.06708 -0.187813,0.08049 -0.16769,0.02683 -0.33538,0.02012 -0.496363,-0.05366 -0.04025,-0.02012 -0.06037,-0.04025 -0.06037,-0.09391 0,-0.06037 0,-0.120737 0,-0.194521 z"
     class="st1" /><path
     style="fill:#ffffff;stroke-width:0.06707606"
     inkscape:connector-curvature="0"
     id="path28"
     d="m 13.489259,6.4230445 c 0,-0.020123 -0.0067,-0.033538 -0.03354,-0.033538 -0.04695,0.00671 -0.09391,0 -0.134152,0 -2.193388,0 -4.3867748,0 -6.5801622,0 -0.020123,0 -0.040246,0 -0.067076,0 -0.02683,0 -0.040246,0.013416 -0.040246,0.040246 0,0.013416 0,0.02683 0,0.040246 0,0.6170997 0,1.227492 0,1.8445918 0,0.020123 0,0.046953 0,0.067076 0.00671,0 0.013416,0.00671 0.013416,0.00671 0.013416,-0.013416 0.02683,-0.020123 0.033538,-0.033538 0.1609826,-0.1609826 0.321965,-0.3152575 0.47624,-0.4762401 0.033538,-0.033538 0.073784,-0.060368 0.1207369,-0.060368 0.013416,0 0.02683,0 0.040246,-0.00671 0.3555032,-0.033538 0.7110063,-0.067076 1.0665094,-0.100614 0.3487956,-0.033538 0.6640531,0.2012281 0.7110063,0.5500236 0.053661,0.3689185 -0.2012281,0.6640531 -0.5097782,0.7244216 -0.073784,0.013416 -0.1475673,0.020123 -0.2213509,0.02683 -0.087199,0.00671 -0.1743977,0.013416 -0.2548891,0.020123 -0.020123,0 -0.040246,0.00671 -0.046953,0.033538 -0.00671,0.1140294 -0.020123,0.2280587 -0.033538,0.342088 0,0.020123 0,0.033538 0.02683,0.033538 0.013416,0 0.033538,0.00671 0.046953,0.00671 0.4359944,0.073784 0.8719889,0.1475675 1.3079833,0.2213511 0.093906,0.013416 0.1945207,0.013416 0.2884272,-0.020123 0.2548889,-0.087199 0.5097783,-0.1676902 0.7646673,-0.2481816 0.288427,-0.093906 0.570147,-0.00671 0.75796,0.2347663 0.02683,0.033538 0.05366,0.040246 0.0872,0.040246 0.268304,0 0.5299,0 0.798205,0 0.301842,0 0.610392,0 0.912234,0 0.248182,0 0.435995,-0.1811055 0.44941,-0.4292868 0,-0.02683 0,-0.046953 0,-0.073784 0,-0.9122345 0,-1.8177614 0,-2.7299959 0.02012,0.013416 0.02012,0 0.02012,-0.020123 z"
     class="st1" /><path
     style="fill:#ffffff;stroke-width:0.06707606"
     inkscape:connector-curvature="0"
     id="path30"
     d="M 10.792801,9.6359881 C 10.71231,9.6158652 10.625111,9.629281 10.54462,9.6561109 10.249485,9.756725 9.9543504,9.8506315 9.6592158,9.944538 9.6256776,9.9579537 9.5921397,9.9646608 9.551894,9.9579537 8.9951627,9.8640472 8.4384313,9.7634332 7.8817001,9.6695267 7.7877936,9.6561109 7.7877936,9.6494038 7.7945011,9.5554973 c 0.020123,-0.2213509 0.046953,-0.4359945 0.067076,-0.6573454 0.00671,-0.067076 0.00671,-0.067076 0.073784,-0.067076 C 8.1231741,8.8176599 8.310987,8.8042459 8.4988,8.7841229 8.7536889,8.7639997 8.9213791,8.5359412 8.8744258,8.2877596 8.8341801,8.0798238 8.6463671,7.9456718 8.4317237,7.9590869 c -0.3487955,0.02683 -0.6975911,0.060369 -1.0530943,0.093907 -0.040246,0.00671 -0.073784,0.020123 -0.100614,0.046953 -0.2280587,0.2280587 -0.4494096,0.4494097 -0.6774683,0.6707608 -0.040246,0.040245 -0.087199,0.067076 -0.1475673,0.060368 -0.1073216,-0.00671 -0.2146434,0 -0.3219652,0 -0.046953,0 -0.053661,0 -0.053661,0.053661 0,0.5366084 0,1.073217 0,1.6098253 0,0.05366 0,0.05366 0.060369,0.05366 0.1140294,0 0.2280585,0 0.3420879,0 0.040246,0 0.073784,0.0067 0.1073218,0.02683 0.1743977,0.100614 0.3487955,0.207936 0.5231932,0.30855 0.040246,0.02012 0.073784,0.03354 0.1207369,0.03354 0.409164,0 0.8183281,0 1.2274921,0 0.4091639,0 0.8116203,0 1.2207844,0 0.040246,0 0.080491,-0.0067 0.1207369,-0.02012 0.1542749,-0.06037 0.3152572,-0.120737 0.4695322,-0.174398 0.19452,-0.07378 0.395749,-0.147568 0.590269,-0.221351 0.187813,-0.07378 0.295135,-0.261597 0.28172,-0.44941 -0.0067,-0.2146432 -0.147568,-0.3689182 -0.348796,-0.4158715 z"
     class="st1" /><path
     style="fill:#ffffff;stroke-width:0.06707606"
     inkscape:connector-curvature="0"
     id="path32"
     d="m 12.268475,5.5845938 c -1.468966,0 -2.9446395,0 -4.4136055,0 -0.040246,0 -0.073784,0.013416 -0.1073216,0.033538 -0.2347663,0.1676902 -0.4695325,0.3286728 -0.7042987,0.4963629 -0.013416,0.013416 -0.033538,0.020123 -0.046953,0.040246 2.0458201,0 4.0849318,0 6.1307518,0 -0.02012,-0.013416 -0.02683,-0.020123 -0.03354,-0.02683 -0.241474,-0.1743979 -0.489655,-0.342088 -0.731129,-0.5164857 -0.02012,-0.020123 -0.05366,-0.02683 -0.09391,-0.02683 z"
     class="st1" /><path
     style="fill:#ffffff;stroke-width:0.06707606"
     inkscape:connector-curvature="0"
     id="path34"
     d="m 7.8079162,5.3229963 c 0.020123,0.033539 0.046953,0.033539 0.073784,0.033539 1.4555505,0 2.9111008,0 4.3666518,0 0.04025,0 0.06708,-0.013424 0.0872,-0.046953 0.0872,-0.1542757 0.181105,-0.3018427 0.275012,-0.4561183 0.0067,-0.013408 0.02012,-0.020123 0.01342,-0.040244 -0.04025,-0.020123 -0.08049,-0.013424 -0.120737,-0.013424 -1.073217,0 -2.146434,0 -3.2263581,0 -0.5500238,0 -1.1067551,0 -1.6567788,0 -0.040246,0 -0.073784,-0.00671 -0.1073217,0.013424 0,0.00671 0,0.013408 0.00671,0.020121 0.093906,0.1609828 0.1945205,0.3219655 0.288427,0.4896553 z"
     class="st1" /><path
     style="fill:#ffffff;stroke-width:0.06707606"
     inkscape:connector-curvature="0"
     id="path36"
     d="m 5.7889267,8.5024025 c -0.2750119,0 -0.5500237,0 -0.8250356,0 -0.060369,0 -0.060369,0 -0.060369,0.060369 0,0.7646671 0,1.5293345 0,2.2940005 0,0.06037 0,0.06037 0.060369,0.06037 0.2750119,0 0.5500237,0 0.8250356,0 0.00671,0 0.020123,0 0.02683,0 0.02683,0 0.033538,-0.01342 0.033538,-0.03354 0,-0.01342 0,-0.03354 0,-0.04695 0,-0.375626 0,-0.751252 0,-1.1268779 0,-0.3823335 0,-0.7646671 0,-1.1470006 0,-0.060369 0,-0.060369 -0.060369,-0.060369 z"
     class="st1" /><path
     style="fill:#ffffff;stroke-width:0.06707606"
     inkscape:connector-curvature="0"
     id="path38"
     d="m 13.348399,6.0138806 c 0.0067,-0.020123 0.0067,-0.02683 0,-0.033538 -0.14086,-0.3353803 -0.295134,-0.6707602 -0.449409,-1.0061415 -0.01342,-0.02683 -0.02683,-0.046953 -0.06037,-0.060369 -0.107322,0.1743985 -0.207936,0.348797 -0.315257,0.5231939 0.281719,0.1945207 0.550023,0.3823337 0.825035,0.5768543 z"
     class="st1" /><path
     style="fill:#ffffff;stroke-width:0.06707606"
     inkscape:connector-curvature="0"
     id="path40"
     d="M 6.7950678,6.0004653 C 7.0499567,5.81936 7.3048458,5.6449621 7.5597349,5.4638562 7.6066881,5.4303192 7.6066881,5.4303192 7.5731506,5.3833649 7.4993668,5.2626294 7.4255832,5.1418923 7.3517995,5.0211553 7.3316767,4.9876167 7.3048463,4.947371 7.2847234,4.9138324 7.2444774,4.9272564 7.2310624,4.9540784 7.2176474,4.9809094 7.0633726,5.309582 6.9090975,5.6449619 6.7682378,5.9803422 c -0.00671,0.00671 -0.020123,0.020123 -0.00671,0.033538 0.013416,0.00671 0.02683,0 0.033538,-0.013416 z"
     class="st1" /><path
     style="fill:#009a3c;stroke-width:0.06707606"
     inkscape:connector-curvature="0"
     id="path42"
     d="m 14.005745,21.193194 v -1.972036 h 0.402456 v 1.697024 c -0.107322,0.05366 -0.261597,0.160983 -0.402456,0.275012 z m -0.697591,0.59027 v 0 c 0.120737,-0.147568 0.254889,-0.301843 0.402456,-0.429287 V 19.21445 h -0.402456 z m -4.6886173,1.569579 v 0 c 0,0.529901 0.2079359,1.026264 0.5902694,1.408598 0.3823336,0.382333 0.8786969,0.590269 1.4085969,0.590269 0.221351,0 0.44941,-0.04695 0.6171,-0.127444 v -0.402457 c -0.187813,0.08049 -0.415871,0.127445 -0.6171,0.127445 -0.8652808,0 -1.5964099,-0.731129 -1.5964099,-1.589703 V 22.99754 c 0,-0.865281 0.7311291,-1.589702 1.5964099,-1.589702 0.429287,0 0.831744,0.16769 1.126878,0.462824 0.301843,0.301843 0.462825,0.697592 0.462825,1.126878 v 2.361078 h 0.402457 v -2.441569 c -0.02683,-0.516486 -0.248182,-0.999433 -0.6171,-1.361644 -0.375626,-0.362211 -0.865282,-0.563439 -1.37506,-0.563439 -0.5299,0 -1.0262633,0.207936 -1.4085969,0.590269 -0.3823335,0.382334 -0.5902694,0.878697 -0.5902694,1.408598 z m 6.0569683,-0.965895 c -0.207935,0.187813 -0.583561,0.610392 -0.885404,0.965895 -0.33538,0.389042 -0.543316,0.643931 -0.898819,1.106756 v -0.630515 c 0.321965,-0.429287 0.697591,-0.858574 0.959188,-1.140294 0.154275,-0.181105 0.409164,-0.435994 0.516485,-0.543316 v 0 c 0.402457,-0.36221 0.744545,-0.442702 0.959188,-0.442702 0.335381,0 0.664053,0.134152 0.912235,0.389041 0.248181,0.248182 0.382334,0.570147 0.382334,0.912235 v 0.362211 c 0,0.711006 -0.583563,1.294568 -1.294569,1.294568 -0.295135,0 -0.583562,-0.120737 -0.818328,-0.328673 -0.228058,-0.207936 -0.389041,-0.496363 -0.449409,-0.804913 l 0.328672,-0.402456 c 0.01342,0.254889 0.120737,0.543316 0.28172,0.757959 0.181105,0.241474 0.415871,0.375626 0.657345,0.375626 0.496363,0 0.892112,-0.389041 0.892112,-0.892111 v -0.362211 c 0,-0.496363 -0.389041,-0.892112 -0.892112,-0.892112 -0.228058,-0.01341 -0.469532,0.0872 -0.650638,0.275012 z M 5.1248737,21.622481 v 0 -0.47624 c -0.3689184,-0.194521 -0.7646672,-0.28172 -1.2945681,-0.28172 -0.5433161,0 -1.0530943,0.201229 -1.4421354,0.556732 -0.3890413,0.362211 -0.6036846,0.831743 -0.6036846,1.334814 v 0.127444 c 0,1.046387 0.8384508,1.891545 1.8647146,1.891545 0.8384509,0 1.1805387,-0.275012 1.2677377,-0.362211 V 23.198769 H 3.5485861 v 0.402456 h 0.9860182 v 0.610392 h -0.00671 c -0.1274446,0.05366 -0.3890412,0.154275 -0.8854041,0.154275 -0.3957488,0 -0.7579595,-0.154275 -1.0329715,-0.429287 C 2.3345099,23.654886 2.1802348,23.27926 2.1802348,22.876803 v -0.127444 c 0,-0.804913 0.751252,-1.489089 1.6433637,-1.489089 0.6238074,0.0067 0.9860181,0.107322 1.3012752,0.362211 z m 2.9446393,0.47624 c -0.5231934,0 -0.8921117,0.368918 -0.8921117,0.892112 V 25.35191 H 6.7749449 v -2.361077 c 0,-0.737837 0.5567313,-1.294568 1.2945681,-1.294568 0.1945206,0 0.4561172,0.04695 0.5634389,0.127444 -0.073784,0.127445 -0.1274445,0.228059 -0.1743977,0.355503 -0.1073218,-0.05366 -0.2347663,-0.08049 -0.3890412,-0.08049 z m -6.9960337,0.657346 c 0,-1.395183 1.2610301,-2.569014 2.7501187,-2.569014 0.563439,0 0.9591877,0.06708 1.2945681,0.207936 v 0.456117 C 4.796201,20.656586 4.4004521,20.569387 3.823598,20.569387 c -0.6170997,0 -1.2006616,0.234766 -1.6500712,0.657345 -0.4427021,0.415872 -0.6975911,0.972603 -0.6975911,1.536042 v 0.127445 c 0,0.596977 0.221351,1.147 0.6238075,1.556164 0.4024563,0.409164 0.95248,0.637223 1.5427494,0.637223 0.9055269,0 1.3683518,-0.328673 1.5628723,-0.523193 v 0 -1.650072 H 3.5485861 v -0.402456 h 2.0726505 v 2.179972 c -0.013416,0.02012 -0.1676902,0.228059 -0.5097782,0.429287 -0.4158715,0.248182 -0.9055268,0.375626 -1.4622582,0.375626 -0.6908835,0 -1.3415214,-0.268304 -1.8177614,-0.751252 C 1.3484912,24.251863 1.0801869,23.601225 1.0801869,22.896926 V 22.756067 Z M 11.912971,25.35191 h -0.402456 v -2.361077 c 0,-0.496363 -0.389041,-0.892112 -0.892112,-0.892112 -0.496362,0 -0.8921112,0.389041 -0.8921112,0.892112 v 0.36221 c 0,0.496363 0.3890412,0.892112 0.8921112,0.892112 0.228059,0 0.456118,-0.07378 0.6171,-0.201228 v 0.429287 c -0.160982,0.134152 -0.422579,0.181105 -0.6171,0.181105 -0.7042982,0 -1.2945675,-0.596977 -1.2945675,-1.294568 V 22.99754 c 0,-0.33538 0.134152,-0.664053 0.3823335,-0.912234 0.2481814,-0.248182 0.570147,-0.389041 0.912234,-0.389041 0.724422,0 1.294568,0.570146 1.294568,1.294568 z M 8.069513,21.394422 c -0.9390649,0 -1.5964104,0.657346 -1.5964104,1.589703 v 2.361078 H 6.0706462 v -2.361078 c 0,-0.556731 0.2012281,-1.059802 0.563439,-1.42872 0.3622107,-0.368918 0.8719889,-0.570147 1.4354278,-0.570147 0.3957487,0 0.7780824,0.107322 1.0061409,0.28172 -0.073784,0.07378 -0.1811052,0.181105 -0.2817195,0.301842 C 8.5792911,21.454791 8.3445248,21.394422 8.069513,21.394422 Z m 8.666227,0.187813 v 0 c -0.382334,-0.382333 -0.878696,-0.590269 -1.408597,-0.590269 -0.382333,0 -0.771375,0.14086 -0.986018,0.288427 -0.442702,0.295135 -0.804913,0.610392 -1.455551,1.455551 v 0.603684 c 0.550024,-0.717714 1.073217,-1.28786 1.475674,-1.603118 0.261596,-0.207935 0.630515,-0.342088 0.965895,-0.342088 0.865282,0 1.59641,0.731129 1.59641,1.589703 v 0.362211 c 0,0.429287 -0.16769,0.825035 -0.47624,1.126878 -0.301842,0.301842 -0.697591,0.462825 -1.12017,0.462825 -0.711006,0 -1.334814,-0.489656 -1.502504,-1.153709 l -0.288427,0.348796 c 0.207936,0.697591 0.959188,1.214077 1.790931,1.214077 0.529901,0 1.026263,-0.207936 1.408597,-0.59027 0.382334,-0.382333 0.59027,-0.878696 0.59027,-1.408597 v -0.362211 c 0,-0.523193 -0.207936,-1.026264 -0.59027,-1.40189 z"
     class="st2" /></g>
</svg>